<?xml version="1.0" standalone="no"?><!DOCTYPE svg PUBLIC "-//W3C//DTD SVG 1.1//EN" "http://www.w3.org/Graphics/SVG/1.1/DTD/svg11.dtd"><svg t="1586944284752" class="icon" viewBox="0 0 1024 1024" version="1.1" xmlns="http://www.w3.org/2000/svg" p-id="10855" xmlns:xlink="http://www.w3.org/1999/xlink" width="200" height="200"><defs><style type="text/css"></style></defs><path d="M526.378667 448h24.490666v213.248h-32.554666v-174.122667c-12.842667 12.245333-29.269333 21.205333-48.981334 26.88v-32.256c9.557333-2.389333 19.413333-6.570667 30.165334-12.544 10.752-6.570667 19.712-13.44 26.88-21.205333z" p-id="10856"></path><path d="M746.666667 128v256l170.666666-128z" p-id="10857"></path><path d="M901.333333 554.666667c0 156.117333-126.549333 282.666667-282.666666 282.666666H405.333333c-156.117333 0-282.666667-126.549333-282.666666-282.666666S249.216 272 405.333333 272h362.666667v-32H405.333333c-173.781333 0-314.666667 140.885333-314.666666 314.666667S231.552 869.333333 405.333333 869.333333h213.333334c173.781333 0 314.666667-140.885333 314.666666-314.666666h-32z" p-id="10858"></path></svg>