<?xml version="1.0" standalone="no"?><!DOCTYPE svg PUBLIC "-//W3C//DTD SVG 1.1//EN" "http://www.w3.org/Graphics/SVG/1.1/DTD/svg11.dtd"><svg t="1586946238790" class="icon" viewBox="0 0 1024 1024" version="1.1" xmlns="http://www.w3.org/2000/svg" p-id="22722" xmlns:xlink="http://www.w3.org/1999/xlink" width="200" height="200"><defs><style type="text/css"></style></defs><path d="M610.986667 256h269.653333c10.24 0 17.066667-6.826667 17.066667-17.066667s-6.826667-17.066667-17.066667-17.066666h-269.653333c-10.24 0-17.066667 6.826667-17.066667 17.066666s6.826667 17.066667 17.066667 17.066667z" fill="#313131" p-id="22723"></path><path d="M873.813333 310.613333h-300.373333c-6.826667 0-10.24-3.413333-13.653333-6.826666L512 221.866667c-10.24-17.066667-27.306667-23.893333-44.373333-23.893334H225.28c-27.306667 0-51.2 23.893333-51.2 51.2v508.586667c0 27.306667 23.893333 51.2 51.2 51.2h648.533333c27.306667 0 51.2-23.893333 51.2-51.2V365.226667c0-30.72-23.893333-54.613333-51.2-54.613334z m17.066667 443.733334c0 10.24-6.826667 17.066667-17.066667 17.066666h-648.533333c-10.24 0-17.066667-6.826667-17.066667-17.066666V245.76c0-10.24 6.826667-17.066667 17.066667-17.066667h242.346667c6.826667 0 10.24 3.413333 13.653333 6.826667l47.786667 81.92c10.24 17.066667 27.306667 23.893333 44.373333 23.893333h300.373333c10.24 0 17.066667 6.826667 17.066667 17.066667v395.946667z" fill="#313131" p-id="22724"></path><path d="M634.88 539.306667h-68.266667v-68.266667c0-10.24-6.826667-17.066667-17.066666-17.066667s-17.066667 6.826667-17.066667 17.066667v68.266667h-68.266667c-10.24 0-17.066667 6.826667-17.066666 17.066666s6.826667 17.066667 17.066666 17.066667h68.266667v68.266667c0 10.24 6.826667 17.066667 17.066667 17.066666s17.066667-6.826667 17.066666-17.066666v-68.266667h68.266667c10.24 0 17.066667-6.826667 17.066667-17.066667s-10.24-17.066667-17.066667-17.066666z" fill="#313131" p-id="22725"></path></svg>