<?xml version="1.0" standalone="no"?><!DOCTYPE svg PUBLIC "-//W3C//DTD SVG 1.1//EN" "http://www.w3.org/Graphics/SVG/1.1/DTD/svg11.dtd"><svg t="1587560879750" class="icon" viewBox="0 0 1024 1024" version="1.1" xmlns="http://www.w3.org/2000/svg" p-id="2531" xmlns:xlink="http://www.w3.org/1999/xlink" width="200" height="200"><defs><style type="text/css"></style></defs><path d="M482.7 800c-8.1 0-16.6-1.8-25.1-5.5l-1.5-0.6-165.8-106.5h-78.7c-28.2 0-54.7-10.9-74.4-30.7-19.7-19.7-30.6-46-30.6-74V413c0-28.1 10.9-54.5 30.8-74.2 19.8-19.7 46.2-30.5 74.2-30.5h78.7l165.9-106.5 1.5-0.6c18.2-7.8 36.5-7.1 50.2 1.9 12.9 8.5 20.2 23.3 20.2 40.8V752c0 17.6-7.4 32.5-20.2 40.9-7.3 4.6-16 7.1-25.2 7.1z m-7.8-41.7c5.4 2.1 9.5 2 11 1 1.3-0.9 2.2-3.8 2.2-7.5v-508c0-3.6-0.8-6.4-2.2-7.3-1.3-0.8-4.9-1.5-11 0.9L302 348.3h-90.4c-35.9 0-65 29-65 64.7v169.7c0 36.3 28.6 64.7 65 64.7H302l172.9 110.9zM606.5 353.8c-8.1-8.7-21.8-9.2-30.4-1-8.7 8.1-9.1 21.8-1 30.5 4 4.3 10.9 13.8 17.9 28.2 12.1 24.6 19.4 53.4 19.4 86.3s-7.3 61.8-19.4 86.3c-7.1 14.4-13.9 23.9-17.9 28.2-8.1 8.7-7.7 22.3 1 30.5 8.7 8.1 22.3 7.7 30.5-1 6.8-7.2 16.1-20.2 25.1-38.7 14.9-30.3 23.7-65.5 23.7-105.4 0-39.9-8.9-75.1-23.7-105.4-9.1-18.3-18.4-31.3-25.2-38.5z m0 0" fill="" p-id="2532"></path><path d="M738.7 327.2c-17.4-29.5-35-49.9-47.3-60.9-8.9-7.9-22.5-7.2-30.4 1.8-7.9 8.9-7.2 22.5 1.8 30.4 2 1.8 6.1 5.9 11.5 12.2 9.3 10.8 18.6 23.6 27.4 38.4 25 42.5 40.1 92.2 40.1 148.8 0 56.6-15 106.3-40.1 148.8-8.7 14.8-18.1 27.7-27.4 38.4-5.4 6.3-9.5 10.3-11.5 12.2-8.9 7.9-9.7 21.6-1.8 30.4 7.9 8.9 21.5 9.7 30.4 1.8 12.3-11 29.9-31.4 47.3-60.9 28.8-48.8 46.1-105.9 46.1-170.7-0.1-64.8-17.4-121.9-46.1-170.7z m0 0" fill="" p-id="2533"></path></svg>