<?xml version="1.0" standalone="no"?><!DOCTYPE svg PUBLIC "-//W3C//DTD SVG 1.1//EN" "http://www.w3.org/Graphics/SVG/1.1/DTD/svg11.dtd"><svg t="1587565876364" class="icon" viewBox="0 0 1024 1024" version="1.1" xmlns="http://www.w3.org/2000/svg" p-id="3506" xmlns:xlink="http://www.w3.org/1999/xlink" width="200" height="200"><defs><style type="text/css"></style></defs><path d="M852.4 255.7c9.1-9.4 8.8-24.5-0.6-33.6-9.4-9.1-24.5-8.8-33.6 0.6L228.7 823.4c-9.1 9.4-8.8 24.5 0.6 33.6 9.4 9.1 24.5 8.8 33.6-0.6l589.5-600.7zM472.9 769.3c6.1 3.1 25.3 12.7 37.9 19.1 65.5 32.9 65.5 32.9 87.3 43.9 55.1 27.7 111.4-6.8 111.4-68.5V529.5h-0.1c-1.3-11.9-11.4-21.1-23.6-21.1-12.3 0-22.3 9.2-23.6 21.1h-0.2v234.3s-19 37.8-42.5 26l-126.8-63.7c-0.1 0-0.2-0.1-0.3-0.1-12-5.3-26 0-31.4 12-5 11.2-0.6 24.3 9.9 30.3 0 0 0.1 0 0.3 0.1 0.6 0.4 1.1 0.7 1.7 0.9zM291.8 644.9h-32.6c-26.2 0-47.6-21.4-47.8-47.7l-1.3-189.7c-0.2-26.4 20.8-47.7 47.2-47.7H331l288.3-144.9c23.5-11.8 42.6 0 42.6 26.3v13.7h0.1c1.3 11.9 11.4 21.1 23.6 21.1 12.2 0 22.3-9.2 23.6-21.1h0.1V241c0-61.7-56.3-96.5-111.5-68.7l-278 139.9h-62.4c-52.8 0-95.1 42.8-94.8 95.6l1.3 189.7c0.4 52.4 43 94.9 95.4 94.9H293c13.1 0 23.8-10.6 23.8-23.8 0-13.1-10.6-23.8-23.8-23.8-0.4 0.1-0.8 0.1-1.2 0.1z" p-id="3507"></path></svg>